<svg xmlns="http://www.w3.org/2000/svg" viewBox="0 0 575.27 575"><title>pokeball</title><g style="isolation:isolate"><g id="Layer_2" data-name="Layer 2"><path d="M896.62,481.47l-.85.38Z" transform="translate(-401.73 -97)" style="fill:none"/><path d="M664.74,521.3l-1.31-.07Z" transform="translate(-401.73 -97)" style="fill:none"/><path d="M438,453.81l-.08-.05Z" transform="translate(-401.73 -97)" style="fill:none"/><path d="M464.29,469.3l-.19-.1Z" transform="translate(-401.73 -97)" style="fill:none"/><path d="M889.78,484.42l-1.4.59Z" transform="translate(-401.73 -97)" style="fill:none"/><path d="M485.47,479.73h0Z" transform="translate(-401.73 -97)" style="fill:none"/><path d="M755,518.59q-4.62.51-9.27.95Q750.36,519.11,755,518.59Z" transform="translate(-401.73 -97)" style="fill:none"/><path d="M874.86,490.38l-.45.17Z" transform="translate(-401.73 -97)" style="fill:none"/><path d="M882.45,487.43l-1.39.55Z" transform="translate(-401.73 -97)" style="fill:none"/><path d="M764.31,517.47q-3.46.43-6.94.84Q760.85,517.91,764.31,517.47Z" transform="translate(-401.73 -97)" style="fill:none"/><path d="M674.55,521.7l-1.54-.06Z" transform="translate(-401.73 -97)" style="fill:none"/><polygon points="30 352.66 30 352.66 30 352.66 30 352.66" style="fill:none"/><path d="M768.24,516.93l.52-.07-.17,0Z" transform="translate(-401.73 -97)" style="fill:none"/><path d="M739,520.12l3.36-.29-1.93.16Z" transform="translate(-401.73 -97)" style="fill:none"/><polygon points="539.62 361.04 539.62 361.04 539.62 361.04 539.62 361.04" style="fill:none"/><path d="M929.22,465.18l-.46.25Z" transform="translate(-401.73 -97)" style="fill:none"/><path d="M659.28,521l4.15.25,1.31.07c2.75.13,5.51.25,8.27.34l1.54.06,1.05,0C669.29,521.37,664.19,521,659.28,521Z" transform="translate(-401.73 -97)" style="fill:#666"/><path d="M659.28,521l4.15.25,1.31.07c2.75.13,5.51.25,8.27.34l1.54.06,1.05,0c-6.31-.35-11.41-.73-16.32-.74Z" transform="translate(-401.73 -97)"/><path d="M527.21,495.61v.47h0Z" transform="translate(-401.73 -97)" style="fill:#666"/><path d="M527.21,495.61v.47h0l0-.48Z" transform="translate(-401.73 -97)"/><path d="M859.74,495.77l1-.35Z" transform="translate(-401.73 -97)" style="fill:#666"/><path d="M860.76,495.42l-.52.18.52-.18Zm-.52.18-.5.17.5-.17Z" transform="translate(-401.73 -97)"/><path d="M431.49,449.14l.24.52h0c2,1.38,4.06,2.75,6.14,4.1l.08.05q12.45,8.1,26.15,15.39l.19.1q10.24,5.46,21.15,10.42h0l.42.19C463.46,468.8,441.4,455.36,431.49,449.14Z" transform="translate(-401.73 -97)" style="fill:#666"/><path d="M431.49,449.14l.24.52h0c2,1.38,4.06,2.75,6.14,4.1l.08.05q12.45,8.1,26.15,15.39l.19.1q10.24,5.46,21.15,10.42h0l.42.19c-22.43-11.12-44.49-24.56-54.4-30.78Z" transform="translate(-401.73 -97)"/><path d="M740.47,520l1.93-.16,3.31-.29q4.65-.43,9.27-.95l2.39-.28q3.48-.4,6.94-.84l3.93-.54.35,0C758.18,518.19,748.85,519.21,740.47,520Z" transform="translate(-401.73 -97)" style="fill:#666"/><path d="M768.59,516.88c-10.41,1.31-19.74,2.33-28.12,3.11l1.93-.16,3.31-.29q4.65-.43,9.27-.95l2.39-.28q3.48-.4,6.94-.84l3.93-.54.35,0Z" transform="translate(-401.73 -97)"/><path d="M659,520.94v0h0Z" transform="translate(-401.73 -97)" style="fill:#666"/><path d="M659,520.94v0h0v0Z" transform="translate(-401.73 -97)"/><path d="M404.22,389.44l1.69,1.47a1.27,1.27,0,0,0-.37.94c0,.15,0,.3,0,.46Z" transform="translate(-401.73 -97)" style="fill:#666"/><path d="M403.05,387.73c0,.13,0,.26,0,.39l3.13,6.72c-.08-1.2-.12-2.22-.15-3a.79.79,0,0,1,.76-.82c-1.26-1.09-2.52-2.18-3.75-3.29Z" transform="translate(-401.73 -97)"/><path d="M972.29,433.1c3.41-26.89,2.22-37.06,2.21-37.16a.57.57,0,0,0-.12-.26l1.93-1.56A288.49,288.49,0,0,1,972.29,433.1Z" transform="translate(-401.73 -97)" style="fill:#666"/><path d="M975.77,395.2q-.21,5.35-.61,10.7a72,72,0,0,0-.17-10v0l.28-.23.5-.41m1.07-2.18c-1.06.9-2.16,1.77-3.24,2.65l.17-.1s0,.25.08.71L974,396s1.36,10.89-2.74,41.15l1-.74A286.86,286.86,0,0,0,976.84,393Z" transform="translate(-401.73 -97)"/><path d="M941.35,458h0l.21-.39q-2,1.39-4.13,2.76C938.74,459.61,940.06,458.83,941.35,458Z" transform="translate(-401.73 -97)" style="fill:#666"/><path d="M941.56,457.64q-2,1.39-4.13,2.76c1.31-.79,2.63-1.57,3.92-2.36h0l.21-.39Z" transform="translate(-401.73 -97)"/><path d="M861.54,495.15q6.51-2.22,12.87-4.6l.45-.17c2.08-.79,4.14-1.59,6.2-2.4l1.39-.55c2-.8,4-1.6,5.93-2.42l1.4-.59c2-.85,4-1.7,6-2.57l.85-.38q16.8-7.44,32.14-16l.46-.25.92-.53A452.94,452.94,0,0,1,861.54,495.15Z" transform="translate(-401.73 -97)" style="fill:#666"/><path d="M930.14,464.65a452.94,452.94,0,0,1-68.6,30.5q6.51-2.22,12.87-4.6l.45-.17c2.08-.79,4.14-1.59,6.2-2.4l1.39-.55c2-.8,4-1.6,5.93-2.42l1.4-.59c2-.85,4-1.7,6-2.57l.85-.38q16.8-7.44,32.14-16l.46-.25.92-.53Z" transform="translate(-401.73 -97)"/><path d="M693,481c-8.54,0-17.19-.2-25.73-.59a71.49,71.49,0,0,0-133.86-23.55c-43.75-14.09-83.27-34.28-114.44-58.49l0-.37-10.32-8.34a2.54,2.54,0,0,0-.94-.52c-.89-.77-1.78-1.54-2.66-2.32v-.34c0-.82,0-1.65,0-2.48a285,285,0,1,1,570,0c0,2.47,0,5.05-.13,8.06-.5.42-1,.83-1.52,1.24l-.9.73-16.24,9.71-.17.87c-.15.74-.32,1.48-.53,2.27-32.76,23-71.8,41.18-116,54C793.34,474.23,744.07,481,693,481Z" transform="translate(-401.73 -97)" style="fill:#f30"/><path d="M690,101A282.76,282.76,0,0,1,973,384c0,2.2,0,4.48-.1,7.09l-.78.63-.82.67L956,401.57l-1.52.91-.35,1.74c-.1.47-.2,1-.32,1.45C921.3,428.36,882.67,446.28,838.9,459,793,472.26,743.88,479,693,479c-8,0-16-.17-24-.51a73.49,73.49,0,0,0-136.55-24c-42.56-13.88-81-33.57-111.53-57.1l0-.34-1.38-1.12-9.6-7.76a4.7,4.7,0,0,0-1.19-.73L407,385.91c0-.64,0-1.27,0-1.91A282.76,282.76,0,0,1,690,101m0-4C531.49,97,403,225.49,403,384c0,1.25,0,2.49.05,3.73,1.23,1.11,2.49,2.2,3.75,3.29h.05a.76.76,0,0,1,.52.19L417,399l0,.4c31.86,24.9,71.85,45.41,117.38,59.88a69.49,69.49,0,0,1,131.1,23.05q13.61.66,27.49.67c104.85,0,199.11-28.91,264.26-74.9.28-1,.53-2.06.74-3.1l15.6-9.33c1.08-.88,2.18-1.75,3.24-2.65.1-3,.16-6,.16-9C977,225.49,848.51,97,690,97Z" transform="translate(-401.73 -97)"/><path d="M768.24,516.93l-3.93.54Z" transform="translate(-401.73 -97)" style="fill:#fff;stroke:#000;stroke-linejoin:round;stroke-width:4px"/><path d="M485.47,479.73l.62.29-.2-.1Z" transform="translate(-401.73 -97)" style="fill:#fff;stroke:#000;stroke-linejoin:round;stroke-width:4px"/><path d="M974,396l-.15.28c.51,5.13,2.16,37.11-32.29,61.36l-.21.39h0c-1.49.91-3,1.82-4.49,2.72s-3.22,2-4.93,2.91c-.89.51-1.81,1-2.71,1.51l-.46.25q-15.32,8.6-32.14,16l-.85.38c-2,.87-4,1.72-6,2.57l-1.4.59c-2,.82-3.94,1.62-5.93,2.42l-1.39.55c-2.06.81-4.12,1.61-6.2,2.4l-.45.17q-7.83,2.94-15.89,5.63a449.33,449.33,0,0,1-88.28,20.5l-1.48.18-.52.07-3.93.54q-3.46.43-6.94.84l-2.39.28q-4.62.51-9.27.95l-3.31.29-3.36.29c-32,2.91-50.1,2.34-63,1.62l-1.44,0-1.54-.06c-2.76-.09-5.52-.21-8.27-.34l-1.31-.07L659,521h0a69.49,69.49,0,0,1-131.72-24.87h0c-11.67-2.57-26.48-8.82-41.14-16.08l-.62-.29h0q-10.89-5-21.15-10.42l-.19-.1q-13.68-7.27-26.15-15.39l-.08-.05c-2.08-1.35-4.12-2.72-6.14-4.1h0q-2.88-2-5.69-4c-.55-.37-1.09-.76-1.62-1.18-14.42-11.37-17.55-38.56-18.23-49.66l-3.13-6.72L403,388s0,27,4,45l.33.73C430.89,568.53,548.46,671,690,671c135.81,0,249.56-94.33,279.36-221v0l0-.1c1-4.44,2-8.92,2.82-13.43l-1,.74C975.36,406.89,974,396,974,396Z" transform="translate(-401.73 -97)" style="fill:#fff;stroke:#000;stroke-linejoin:round;stroke-width:2px"/><path d="M659,521l4.42.25-4.15-.25Z" transform="translate(-401.73 -97)" style="fill:#fff;stroke:#000;stroke-linejoin:round;stroke-width:4px"/><path d="M659,521v0h0v0Z" transform="translate(-401.73 -97)" style="fill:#fff;stroke:#000;stroke-linejoin:round;stroke-width:4px"/><path d="M527.22,496.08v0h0v0Z" transform="translate(-401.73 -97)" style="fill:#fff;stroke:#000;stroke-linejoin:round;stroke-width:4px"/><path d="M860.76,495.42l-1,.35-1.22.41q8.07-2.69,15.89-5.63-6.36,2.38-12.87,4.6Z" transform="translate(-401.73 -97)" style="fill:#fff;stroke:#000;stroke-linejoin:round;stroke-width:4px"/><path d="M674.55,521.7l1.44,0-.39,0Z" transform="translate(-401.73 -97)" style="fill:#fff;stroke:#000;stroke-linejoin:round;stroke-width:4px"/><path d="M426,445.68q2.81,2,5.69,4l-.24-.52C428,447,426,445.68,426,445.68Z" transform="translate(-401.73 -97)" style="fill:#fff;stroke:#000;stroke-linejoin:round;stroke-width:4px"/><path d="M888.38,485c-2,.82-3.94,1.62-5.93,2.42C884.44,486.63,886.42,485.83,888.38,485Z" transform="translate(-401.73 -97)" style="fill:#fff;stroke:#000;stroke-linejoin:round;stroke-width:4px"/><path d="M929.22,465.18c.9-.51,1.82-1,2.71-1.51l-1.79,1Z" transform="translate(-401.73 -97)" style="fill:#fff;stroke:#000;stroke-linejoin:round;stroke-width:4px"/><path d="M936.86,460.76c1.51-.9,3-1.81,4.49-2.72-1.29.79-2.61,1.57-3.92,2.36Z" transform="translate(-401.73 -97)" style="fill:#fff;stroke:#000;stroke-linejoin:round;stroke-width:4px"/><path d="M485.44,479.72q-10.89-5-21.15-10.42Q474.55,474.76,485.44,479.72Z" transform="translate(-401.73 -97)" style="fill:#fff;stroke:#000;stroke-linejoin:round;stroke-width:4px"/><path d="M895.77,481.85c-2,.87-4,1.72-6,2.57C891.79,483.57,893.79,482.72,895.77,481.85Z" transform="translate(-401.73 -97)" style="fill:#fff;stroke:#000;stroke-linejoin:round;stroke-width:4px"/><path d="M673,521.64c-2.76-.09-5.52-.21-8.27-.34C667.49,521.43,670.25,521.55,673,521.64Z" transform="translate(-401.73 -97)" style="fill:#fff;stroke:#000;stroke-linejoin:round;stroke-width:4px"/><path d="M745.71,519.54l-3.31.29Z" transform="translate(-401.73 -97)" style="fill:#fff;stroke:#000;stroke-linejoin:round;stroke-width:4px"/><path d="M437.87,453.76c-2.08-1.35-4.12-2.72-6.14-4.1C433.75,451,435.79,452.41,437.87,453.76Z" transform="translate(-401.73 -97)" style="fill:#fff;stroke:#000;stroke-linejoin:round;stroke-width:4px"/><path d="M757.37,518.31l-2.39.28Z" transform="translate(-401.73 -97)" style="fill:#fff;stroke:#000;stroke-linejoin:round;stroke-width:4px"/><path d="M928.76,465.43q-15.32,8.6-32.14,16Q913.42,474,928.76,465.43Z" transform="translate(-401.73 -97)" style="fill:#fff;stroke:#000;stroke-linejoin:round;stroke-width:4px"/><path d="M464.1,469.2q-13.68-7.27-26.15-15.39Q450.4,461.91,464.1,469.2Z" transform="translate(-401.73 -97)" style="fill:#fff;stroke:#000;stroke-linejoin:round;stroke-width:4px"/><path d="M881.06,488c-2.06.81-4.12,1.61-6.2,2.4C876.94,489.59,879,488.79,881.06,488Z" transform="translate(-401.73 -97)" style="fill:#fff;stroke:#000;stroke-linejoin:round;stroke-width:4px"/><path d="M617.47,516.91l.39.06Z" transform="translate(-401.73 -97)" style="fill:#fff"/><path d="M617.47,516.91l.39.06-.39-.06Z" transform="translate(-401.73 -97)"/><path d="M626.16,518l1.23.15Z" transform="translate(-401.73 -97)" style="fill:#fff"/><path d="M626.16,518l1.23.15-1.23-.15Z" transform="translate(-401.73 -97)"/><path d="M654.59,520.7l.27,0Z" transform="translate(-401.73 -97)" style="fill:#fff"/><path d="M654.59,520.7h0Zm.13,0h0Z" transform="translate(-401.73 -97)"/><path d="M645.09,520l1,.08Z" transform="translate(-401.73 -97)" style="fill:#fff"/><path d="M645.09,520l1,.08-1-.08Z" transform="translate(-401.73 -97)"/><path d="M547.85,502.46l.25.07Z" transform="translate(-401.73 -97)" style="fill:#fff"/><path d="M547.85,502.46l.25.07-.25-.07Z" transform="translate(-401.73 -97)"/><path d="M564.5,506.86l.85.2Z" transform="translate(-401.73 -97)" style="fill:#fff"/><path d="M564.5,506.86l.85.2-.85-.2Z" transform="translate(-401.73 -97)"/><path d="M555.92,504.67l.84.22Z" transform="translate(-401.73 -97)" style="fill:#fff"/><path d="M555.92,504.67l.84.22-.84-.22Z" transform="translate(-401.73 -97)"/><path d="M531.45,497.49l.51.16Z" transform="translate(-401.73 -97)" style="fill:#fff"/><path d="M531.45,497.49l.51.16-.51-.16Z" transform="translate(-401.73 -97)"/><path d="M599.24,514.09l1.16.2Z" transform="translate(-401.73 -97)" style="fill:#fff"/><path d="M599.24,514.09l1.16.2-1.16-.2Z" transform="translate(-401.73 -97)"/><path d="M573.36,509l.22,0Z" transform="translate(-401.73 -97)" style="fill:#fff"/><path d="M573.36,509l.22,0-.22,0Z" transform="translate(-401.73 -97)"/><path d="M590.26,512.46l1.07.2Z" transform="translate(-401.73 -97)" style="fill:#fff"/><path d="M590.26,512.46l1.07.2-1.07-.2Z" transform="translate(-401.73 -97)"/><path d="M608.5,515.61l.68.1Z" transform="translate(-401.73 -97)" style="fill:#fff"/><path d="M608.5,515.61l.68.1-.68-.1Z" transform="translate(-401.73 -97)"/><path d="M581.85,510.79l.35.07Z" transform="translate(-401.73 -97)" style="fill:#fff"/><path d="M581.85,510.79l.35.07-.35-.07Z" transform="translate(-401.73 -97)"/><path d="M635.47,519.06l1.39.15Z" transform="translate(-401.73 -97)" style="fill:#fff"/><path d="M635.47,519.06l1.39.15-1.39-.15Z" transform="translate(-401.73 -97)"/><path d="M693,483q-13.35,0-26.46-.62a1.23,1.23,0,0,1-1.16-1.08,69.49,69.49,0,0,0-130.49-22.95,1.24,1.24,0,0,1-1.48.61c-44.06-14.11-82.89-33.89-114.15-57.83a1.23,1.23,0,0,0-2,1.11A65.27,65.27,0,0,0,431,435l.09.1C470.05,472,527,490,527,490v.2l.17,4.56,1.31,1.75c1,.33-14-5.33-13-5-.8-.26,14.35,5.47,13.54,5.21a1.23,1.23,0,0,0-1.62,1.29,69.5,69.5,0,0,0,130.7,24.66,1.25,1.25,0,0,0-1-1.8c-.74,0,9.16.69,8.42.64,1.06.07-8.52-.65-7.46-.59l1.27-.82L662,513h.26c5.59-.06,105.83-1.31,143.74-12,0,0,52-12,107-42l.06,0c1.17-.73,33.54-21,43.1-47.37a1.24,1.24,0,0,0-1.88-1.42C889.23,455,796.25,483,693,483Z" transform="translate(-401.73 -97)" style="fill:#666;stroke:#000;stroke-linecap:square;stroke-miterlimit:10;stroke-width:3px"/><path d="M582.2,510.86c2.67.55,5.36,1.09,8.06,1.6C587.56,512,584.87,511.41,582.2,510.86Z" transform="translate(-401.73 -97)" style="fill:#fff"/><path d="M582.2,510.86c1.48.31,3,.61,4.45.9-1.49-.29-3-.59-4.45-.9Zm4.45.9,3.61.7-3.61-.7Z" transform="translate(-401.73 -97)"/><path d="M591.33,512.66c2.62.5,5.26,1,7.91,1.43C596.59,513.63,594,513.16,591.33,512.66Z" transform="translate(-401.73 -97)" style="fill:#fff"/><path d="M591.33,512.66l4.75.88-4.75-.88Zm4.75.88,3.16.55-3.16-.55Z" transform="translate(-401.73 -97)"/><path d="M654.86,520.72,659,521v0C657.6,520.88,656.23,520.81,654.86,520.72Z" transform="translate(-401.73 -97)" style="fill:#fff"/><path d="M654.86,520.72,659,521v0c-1.38-.08-2.75-.15-4.12-.24Z" transform="translate(-401.73 -97)"/><path d="M573.58,509q4.11.93,8.27,1.8Q577.7,509.92,573.58,509Z" transform="translate(-401.73 -97)" style="fill:#fff"/><path d="M573.58,509q2.56.58,5.16,1.14-2.6-.56-5.16-1.14Zm5.16,1.14,3.11.66-3.11-.66Z" transform="translate(-401.73 -97)"/><path d="M565.35,507.06q4,1,8,1.89Q569.34,508,565.35,507.06Z" transform="translate(-401.73 -97)" style="fill:#fff"/><path d="M565.35,507.06c2,.48,4,1,5.95,1.42-2-.46-4-.94-5.95-1.42Zm5.95,1.42,2.06.47-2.06-.47Z" transform="translate(-401.73 -97)"/><path d="M532,497.65q7.83,2.53,15.89,4.81Q539.8,500.18,532,497.65Z" transform="translate(-401.73 -97)" style="fill:#fff"/><path d="M532,497.65c2.39.77,4.79,1.53,7.21,2.26-2.42-.73-4.82-1.49-7.21-2.26Zm7.21,2.26c2.87.88,5.77,1.73,8.68,2.55-2.91-.82-5.81-1.67-8.68-2.55Z" transform="translate(-401.73 -97)"/><path d="M548.1,502.53q3.89,1.11,7.82,2.14Q552,503.64,548.1,502.53Z" transform="translate(-401.73 -97)" style="fill:#fff"/><path d="M548.1,502.53c2.31.65,4.62,1.29,6.95,1.91-2.33-.62-4.64-1.26-6.95-1.91Zm6.95,1.91.87.23-.87-.23Z" transform="translate(-401.73 -97)"/><path d="M556.76,504.89q3.86,1,7.74,2Q560.62,505.9,556.76,504.89Z" transform="translate(-401.73 -97)" style="fill:#fff"/><path d="M556.76,504.89q3.22.86,6.48,1.66-3.25-.81-6.48-1.66Zm6.48,1.66,1.26.31-1.26-.31Z" transform="translate(-401.73 -97)"/><path d="M600.4,514.29q4,.69,8.1,1.32Q604.43,515,600.4,514.29Z" transform="translate(-401.73 -97)" style="fill:#fff"/><path d="M600.4,514.29l2.52.42-2.52-.42Zm2.52.42q2.77.46,5.58.9-2.81-.43-5.58-.9Z" transform="translate(-401.73 -97)"/><path d="M527.24,496.09v0q2.09.7,4.2,1.38C530,497,528.65,496.56,527.24,496.09Z" transform="translate(-401.73 -97)" style="fill:#fff"/><path d="M527.24,496.09v0q2.09.7,4.2,1.38c-1.41-.45-2.8-.93-4.21-1.4Z" transform="translate(-401.73 -97)"/><path d="M617.86,517q4.13.56,8.3,1Q622,517.53,617.86,517Z" transform="translate(-401.73 -97)" style="fill:#fff"/><path d="M617.86,517q3.61.48,7.24.93-3.63-.45-7.24-.93Zm7.24.93,1.06.12-1.06-.12Z" transform="translate(-401.73 -97)"/><path d="M636.86,519.21c2.74.27,5.47.53,8.23.76C642.33,519.74,639.6,519.48,636.86,519.21Z" transform="translate(-401.73 -97)" style="fill:#fff"/><path d="M636.86,519.21l3.74.36-3.74-.36Zm3.74.36,4.49.4-4.49-.4Z" transform="translate(-401.73 -97)"/><path d="M646.1,520.05c2.82.24,8.06.76,10.9,1C654.16,520.81,648.92,520.29,646.1,520.05Z" transform="translate(-401.73 -97)" style="fill:#fff"/><path d="M646.1,520.05l5.15.47-5.15-.47Zm5.15.47c2.12.19,4.26.38,5.75.48-1.49-.1-3.63-.29-5.75-.48Z" transform="translate(-401.73 -97)"/><path d="M627.39,518.17c2.68.32,5.38.62,8.08.89C632.77,518.79,630.07,518.49,627.39,518.17Z" transform="translate(-401.73 -97)" style="fill:#fff"/><path d="M627.39,518.17q1.83.23,3.66.42-1.83-.2-3.66-.42Zm3.66.42c1.47.17,2.94.32,4.42.47-1.48-.15-3-.3-4.42-.47Z" transform="translate(-401.73 -97)"/><path d="M609.18,515.71q4.13.63,8.29,1.2Q613.3,516.34,609.18,515.71Z" transform="translate(-401.73 -97)" style="fill:#fff"/><path d="M609.18,515.71l4.13.61-4.13-.61Zm4.13.61c1.39.21,2.77.4,4.16.59-1.39-.19-2.77-.38-4.16-.59Z" transform="translate(-401.73 -97)"/><path d="M777.83,515.54l4.85-.77Z" transform="translate(-401.73 -97)" style="fill:#fff;stroke:#000;stroke-miterlimit:10;stroke-width:4px"/><path d="M736.11,520.35l2.93-.23,1.43-.13C739,520.11,737.57,520.24,736.11,520.35Z" transform="translate(-401.73 -97)" style="fill:#fff;stroke:#000;stroke-miterlimit:10;stroke-width:4px"/><path d="M935,461.85l.56-.33Z" transform="translate(-401.73 -97)" style="fill:#fff;stroke:#000;stroke-miterlimit:10;stroke-width:4px"/><path d="M768.59,516.88l.17,0,4.78-.67Q771.08,516.55,768.59,516.88Z" transform="translate(-401.73 -97)" style="fill:#fff;stroke:#000;stroke-miterlimit:10;stroke-width:4px"/><path d="M844,500.76l2.65-.8Z" transform="translate(-401.73 -97)" style="fill:#fff;stroke:#000;stroke-miterlimit:10;stroke-width:4px"/><path d="M818.55,507.55l3.33-.79Z" transform="translate(-401.73 -97)" style="fill:#fff;stroke:#000;stroke-miterlimit:10;stroke-width:4px"/><path d="M835.58,503.16l3.06-.85Z" transform="translate(-401.73 -97)" style="fill:#fff;stroke:#000;stroke-miterlimit:10;stroke-width:4px"/><path d="M787.11,514l4.59-.82Z" transform="translate(-401.73 -97)" style="fill:#fff;stroke:#000;stroke-miterlimit:10;stroke-width:4px"/><path d="M805.19,510.57l3.57-.78Z" transform="translate(-401.73 -97)" style="fill:#fff;stroke:#000;stroke-miterlimit:10;stroke-width:4px"/><path d="M852.26,498.21l1.52-.49Z" transform="translate(-401.73 -97)" style="fill:#fff;stroke:#000;stroke-miterlimit:10;stroke-width:4px"/><path d="M796.22,512.36l4.38-.87Z" transform="translate(-401.73 -97)" style="fill:#fff;stroke:#000;stroke-miterlimit:10;stroke-width:4px"/><path d="M827.08,505.43l3.27-.84Z" transform="translate(-401.73 -97)" style="fill:#fff;stroke:#000;stroke-miterlimit:10;stroke-width:4px"/><path d="M726.38,521q3-.18,6-.39Q729.36,520.83,726.38,521Z" transform="translate(-401.73 -97)" style="fill:#fff;stroke:#000;stroke-miterlimit:10;stroke-width:4px"/><path d="M716.45,521.5q3-.12,6-.28Q719.49,521.39,716.45,521.5Z" transform="translate(-401.73 -97)" style="fill:#fff;stroke:#000;stroke-miterlimit:10;stroke-width:4px"/><path d="M706.08,521.83c2.21-.05,4.42-.1,6.62-.18C710.5,521.73,708.29,521.78,706.08,521.83Z" transform="translate(-401.73 -97)" style="fill:#fff;stroke:#000;stroke-miterlimit:10;stroke-width:4px"/><path d="M682.91,521.91l1.24,0Z" transform="translate(-401.73 -97)" style="fill:#fff;stroke:#000;stroke-miterlimit:10;stroke-width:4px"/><path d="M693,522q4.95,0,9.87-.09Q698,522,693,522Z" transform="translate(-401.73 -97)" style="fill:#fff;stroke:#000;stroke-miterlimit:10;stroke-width:4px"/><path d="M958,405c-.21,1-.46,2.07-.74,3.1,5.68-4,11.12-8.17,16.34-12.43Z" transform="translate(-401.73 -97)" style="fill:#fff;stroke:#000;stroke-miterlimit:10;stroke-width:4px"/><path d="M732.33,520.62q-3,.21-6,.39l-3.88.21q-3,.16-6,.28l-3.75.15c-2.2.08-4.41.13-6.62.18l-3.21.08Q698,522,693,522c-3,0-5.91,0-8.85-.07l-1.24,0q-3.46-.06-6.92-.17c13,.72,31,1.29,63-1.62l-2.93.23Z" transform="translate(-401.73 -97)" style="fill:#fff;stroke:#000;stroke-miterlimit:10;stroke-width:4px"/><path d="M659,521h0Z" transform="translate(-401.73 -97)" style="fill:#fff;stroke:#000;stroke-miterlimit:10;stroke-width:4px"/><path d="M852.26,498.21c-1.87.6-3.75,1.17-5.64,1.75l-2.65.8-5.33,1.55-3.06.85c-1.74.49-3.48,1-5.23,1.43l-3.27.84c-1.73.45-3.46.9-5.2,1.33l-3.33.79q-4.86,1.17-9.79,2.24l-3.57.78c-1.52.32-3.06.62-4.59.92l-4.38.87c-1.5.29-3,.56-4.52.84l-4.59.82c-1.47.26-3,.5-4.43.75l-4.85.77-4.29.65-4.78.67,1.48-.18a449.33,449.33,0,0,0,88.28-20.5c-1.57.53-3.16,1-4.74,1.54Z" transform="translate(-401.73 -97)" style="fill:#fff;stroke:#000;stroke-miterlimit:10;stroke-width:4px"/><path d="M935,461.85c-1,.6-2,1.22-3.08,1.82,1.71-.95,3.35-1.93,4.93-2.91l-1.29.76Z" transform="translate(-401.73 -97)" style="fill:#fff;stroke:#000;stroke-miterlimit:10;stroke-width:4px"/><path d="M821.88,506.76c1.74-.43,3.47-.88,5.2-1.33C825.35,505.88,823.62,506.33,821.88,506.76Z" transform="translate(-401.73 -97)" style="fill:#fff;stroke:#000;stroke-miterlimit:10;stroke-width:4px"/><path d="M702.87,521.91l3.21-.08Z" transform="translate(-401.73 -97)" style="fill:#fff;stroke:#000;stroke-miterlimit:10;stroke-width:4px"/><path d="M830.35,504.59c1.75-.47,3.49-.94,5.23-1.43C833.84,503.65,832.1,504.12,830.35,504.59Z" transform="translate(-401.73 -97)" style="fill:#fff;stroke:#000;stroke-miterlimit:10;stroke-width:4px"/><path d="M675.6,521.72l.39,0q3.45.1,6.92.17Q679.25,521.84,675.6,521.72Z" transform="translate(-401.73 -97)" style="fill:#fff;stroke:#000;stroke-miterlimit:10;stroke-width:4px"/><path d="M930.14,464.65l1.79-1c1-.6,2.05-1.22,3.08-1.82Q932.6,463.26,930.14,464.65Z" transform="translate(-401.73 -97)" style="fill:#fff;stroke:#000;stroke-miterlimit:10;stroke-width:4px"/><path d="M808.76,509.79q4.92-1.08,9.79-2.24Q813.69,508.72,808.76,509.79Z" transform="translate(-401.73 -97)" style="fill:#fff;stroke:#000;stroke-miterlimit:10;stroke-width:4px"/><path d="M935.57,461.52l1.29-.76.57-.36Z" transform="translate(-401.73 -97)" style="fill:#fff;stroke:#000;stroke-miterlimit:10;stroke-width:4px"/><path d="M838.64,502.31l5.33-1.55Z" transform="translate(-401.73 -97)" style="fill:#fff;stroke:#000;stroke-miterlimit:10;stroke-width:4px"/><path d="M860.76,495.42l.78-.27Z" transform="translate(-401.73 -97)" style="fill:#fff;stroke:#000;stroke-miterlimit:10;stroke-width:4px"/><path d="M684.15,521.93c2.94,0,5.89.07,8.85.07C690,522,687.09,522,684.15,521.93Z" transform="translate(-401.73 -97)" style="fill:#fff;stroke:#000;stroke-miterlimit:10;stroke-width:4px"/><path d="M853.78,497.72c1.58-.51,3.17-1,4.74-1.54l1.22-.41Q856.77,496.76,853.78,497.72Z" transform="translate(-401.73 -97)" style="fill:#fff;stroke:#000;stroke-miterlimit:10;stroke-width:4px"/><path d="M846.62,500c1.89-.58,3.77-1.15,5.64-1.75C850.39,498.81,848.51,499.38,846.62,500Z" transform="translate(-401.73 -97)" style="fill:#fff;stroke:#000;stroke-miterlimit:10;stroke-width:4px"/><path d="M800.6,511.49c1.53-.3,3.07-.6,4.59-.92C803.67,510.89,802.13,511.19,800.6,511.49Z" transform="translate(-401.73 -97)" style="fill:#fff;stroke:#000;stroke-miterlimit:10;stroke-width:4px"/><path d="M773.54,516.19l4.29-.65Z" transform="translate(-401.73 -97)" style="fill:#fff;stroke:#000;stroke-miterlimit:10;stroke-width:4px"/><path d="M973.85,396.28c0-.46-.08-.71-.08-.71l-.17.1c-5.22,4.26-10.66,8.42-16.34,12.43C949.34,436.64,913,459,913,459c-55,30-107,42-107,42-37.91,10.69-138.15,11.94-143.74,12a70.78,70.78,0,0,1-3.27,7.94v0l.3,0c4.91,0,10,.39,16.32.74q3.64.12,7.31.19l1.24,0c2.94,0,5.89.07,8.85.07q4.95,0,9.87-.09l3.21-.08c2.21-.05,4.42-.1,6.62-.18l3.75-.15q3-.12,6-.28l3.88-.21q3-.18,6-.39c1.26-.09,2.53-.17,3.78-.27,1.46-.11,2.91-.24,4.36-.36,8.38-.78,17.71-1.8,28.12-3.11q2.49-.33,4.95-.69l4.29-.65,4.85-.77c1.48-.25,3-.49,4.43-.75l4.59-.82c1.51-.28,3-.55,4.52-.84l4.38-.87c1.53-.3,3.07-.6,4.59-.92l3.57-.78q4.92-1.08,9.79-2.24l3.33-.79c1.74-.43,3.47-.88,5.2-1.33l3.27-.84c1.75-.47,3.49-.94,5.23-1.43l3.06-.85,5.33-1.55,2.65-.8c1.89-.58,3.77-1.15,5.64-1.75l1.52-.49q3-1,6-2l1-.35.78-.27a452.94,452.94,0,0,0,68.6-30.5q2.46-1.39,4.87-2.8l.56-.33,1.86-1.12q2.15-1.36,4.13-2.76C976,433.39,974.36,401.41,973.85,396.28Z" transform="translate(-401.73 -97)" style="fill:#fff;stroke:#000;stroke-miterlimit:10;stroke-width:4px"/><path d="M659,521v0h.31Z" transform="translate(-401.73 -97)" style="fill:#fff;stroke:#000;stroke-miterlimit:10;stroke-width:4px"/><path d="M732.33,520.62l3.78-.27C734.86,520.45,733.59,520.53,732.33,520.62Z" transform="translate(-401.73 -97)" style="fill:#fff;stroke:#000;stroke-miterlimit:10;stroke-width:4px"/><path d="M791.7,513.2c1.51-.28,3-.55,4.52-.84C794.72,512.65,793.21,512.92,791.7,513.2Z" transform="translate(-401.73 -97)" style="fill:#fff;stroke:#000;stroke-miterlimit:10;stroke-width:4px"/><path d="M712.7,521.65l3.75-.15Z" transform="translate(-401.73 -97)" style="fill:#fff;stroke:#000;stroke-miterlimit:10;stroke-width:4px"/><path d="M722.5,521.22l3.88-.21Z" transform="translate(-401.73 -97)" style="fill:#fff;stroke:#000;stroke-miterlimit:10;stroke-width:4px"/><path d="M782.68,514.77c1.48-.25,3-.49,4.43-.75C785.64,514.28,784.16,514.52,782.68,514.77Z" transform="translate(-401.73 -97)" style="fill:#fff;stroke:#000;stroke-miterlimit:10;stroke-width:4px"/><path d="M662,513l-3,7.94a70.78,70.78,0,0,0,3.27-7.94Z" transform="translate(-401.73 -97)" style="fill:#fff;stroke:#000;stroke-miterlimit:10;stroke-width:4px"/><path d="M515.66,492.07l.13,0Z" transform="translate(-401.73 -97)" style="fill:#fff;stroke:#000;stroke-miterlimit:10;stroke-width:4px"/><path d="M523.32,494.78l.6.2Z" transform="translate(-401.73 -97)" style="fill:#fff;stroke:#000;stroke-miterlimit:10;stroke-width:4px"/><path d="M492.65,482.92l.37.15Z" transform="translate(-401.73 -97)" style="fill:#fff;stroke:#000;stroke-miterlimit:10;stroke-width:4px"/><path d="M500.28,486.12l.17.07Z" transform="translate(-401.73 -97)" style="fill:#fff;stroke:#000;stroke-miterlimit:10;stroke-width:4px"/><path d="M417,399l-9.63-7.79a.78.78,0,0,0-.57-.19q5,4.26,10.23,8.38Z" transform="translate(-401.73 -97)" style="fill:#fff;stroke:#000;stroke-miterlimit:10;stroke-width:4px"/><path d="M426,445.68l-1.62-1.18C425,444.92,425.49,445.31,426,445.68Z" transform="translate(-401.73 -97)" style="fill:#fff;stroke:#000;stroke-miterlimit:10;stroke-width:4px"/><path d="M523.32,494.78q-3.8-1.3-7.53-2.67l-.13,0q-7.72-2.82-15.21-5.88l-.17-.07q-3.66-1.49-7.26-3.05l-.37-.15c-2.2-1-4.39-1.92-6.56-2.9,14.66,7.26,29.47,13.51,41.14,16.08h0L523.92,495Z" transform="translate(-401.73 -97)" style="fill:#fff;stroke:#000;stroke-miterlimit:10;stroke-width:4px"/><path d="M527.21,495.61c-.13-1.69-.21-3.39-.21-5.11,0-.1,0-.2,0-.3V490s-57-18-96-55a65,65,0,0,1-14-35.6q-5.26-4.11-10.23-8.38a.79.79,0,0,0-.76.82c0,.78.07,1.8.15,3,.68,11.1,3.81,38.29,18.23,49.66l1.62,1.18s2,1.29,5.45,3.46c9.91,6.22,32,19.66,54.4,30.78q3.36,1.53,6.76,3l.37.15q3.6,1.56,7.26,3.05l.17.07q7.47,3.06,15.21,5.88l.13,0q3.74,1.36,7.53,2.67l.6.2c1.09.38,2.2.74,3.3,1.1Z" transform="translate(-401.73 -97)" style="fill:#fff;stroke:#000;stroke-miterlimit:10;stroke-width:4px"/><path d="M523.92,495l3.31,1.12v0C526.12,495.72,525,495.36,523.92,495Z" transform="translate(-401.73 -97)" style="fill:#fff;stroke:#000;stroke-miterlimit:10;stroke-width:4px"/><path d="M485.89,479.92l.2.1c2.17,1,4.36,1.94,6.56,2.9Q489.25,481.45,485.89,479.92Z" transform="translate(-401.73 -97)" style="fill:#fff;stroke:#000;stroke-miterlimit:10;stroke-width:4px"/><path d="M515.79,492.11q3.74,1.36,7.53,2.67Q519.52,493.48,515.79,492.11Z" transform="translate(-401.73 -97)" style="fill:#fff;stroke:#000;stroke-miterlimit:10;stroke-width:4px"/><path d="M493,483.07q3.6,1.56,7.26,3.05Q496.62,484.64,493,483.07Z" transform="translate(-401.73 -97)" style="fill:#fff;stroke:#000;stroke-miterlimit:10;stroke-width:4px"/><path d="M500.45,486.19q7.47,3.06,15.21,5.88Q507.94,489.25,500.45,486.19Z" transform="translate(-401.73 -97)" style="fill:#fff;stroke:#000;stroke-miterlimit:10;stroke-width:4px"/><path d="M527,490.5c0,1.72.08,3.42.21,5.11l-.2-5.41C527,490.3,527,490.4,527,490.5Z" transform="translate(-401.73 -97)" style="fill:#fff;stroke:#000;stroke-miterlimit:10;stroke-width:4px"/><circle cx="193.77" cy="395.5" r="45.5" style="fill:#fff;stroke:#000;stroke-miterlimit:10;stroke-width:2px"/><circle cx="191.77" cy="397.5" r="43.5" style="fill:#fff;stroke:#000;stroke-miterlimit:10;stroke-width:2px"/><circle cx="190.27" cy="399" r="19" style="fill:#fff;stroke:#000;stroke-miterlimit:10;stroke-width:0.5px"/><circle cx="189.43" cy="399.84" r="18.16" style="fill:#fff;stroke:#000;stroke-miterlimit:10;stroke-width:0.5px"/><path d="M592.18,559.83c-22.21,0-41.39-10.74-55.47-31.06a106.37,106.37,0,0,1-14.66-30.9,1.46,1.46,0,0,1,.14-1.1l2.5-4.5a1.49,1.49,0,0,1,1.31-.77h.12a1.52,1.52,0,0,1,1.29,1c18.44,50,49.34,60.56,72,60.56,19.86,0,36.19-7.8,39.28-9.37l.61-.32a1.45,1.45,0,0,1,.7-.17,1.5,1.5,0,0,1,.72,2.81l-.66.35C622.86,555.29,606.74,559.83,592.18,559.83Z" transform="translate(-401.73 -97)" style="fill:#fff"/><path d="M526,493c18.31,49.69,48.65,61.53,73.43,61.53a93.87,93.87,0,0,0,40-9.53c-18.31,9.52-33.93,13.33-47.21,13.33-53.07,0-68.68-60.83-68.68-60.83L526,493m114,51.68h0m0,0h0m0,0-.63.32.63-.32M526,490a3,3,0,0,0-2.62,1.54l-2.5,4.5a3,3,0,0,0-.29,2.21,108.35,108.35,0,0,0,14.88,31.37c14.38,20.74,34,31.71,56.71,31.71,14.8,0,31.15-4.6,48.59-13.66l.61-.32a3,3,0,0,0-1.17-5.67H640a2.79,2.79,0,0,0-.7.08,2.59,2.59,0,0,0-.73.29l-.56.29a91.23,91.23,0,0,1-38.59,9.19c-32.29,0-56-20-70.61-59.57a3,3,0,0,0-2.59-1.95Z" transform="translate(-401.73 -97)"/><path d="M640,544.68l.07-.06-.08.06Z" transform="translate(-401.73 -97)" style="fill:none"/><path d="M658.14,522.61c.27-.53.55-1.06.81-1.6l-1.85-.14A1.23,1.23,0,0,1,658.14,522.61Z" transform="translate(-401.73 -97)" style="fill:none"/><path d="M533.41,459h.05c-1.46-.47-2.9-1-4.34-1.43C530.55,458,532,458.5,533.41,459Z" transform="translate(-401.73 -97)" style="fill:none"/><path d="M639.2,545.32l.82-.64h0Z" transform="translate(-401.73 -97)" style="fill:none"/><path d="M527.21,495.61l0,.39,1.22.47-1.28-1.71Z" transform="translate(-401.73 -97)" style="fill:none"/><path d="M528.48,496.5l-1.24-.49v.08l1.24.41Z" transform="translate(-401.73 -97)" style="fill:none"/><path d="M527.25,496.11c0,.06,0,.12,0,.18l.36.92a1.23,1.23,0,0,1,1.42-.5s0,0,0,0Z" transform="translate(-401.73 -97)" style="fill:none"/><path d="M528.91,496.64l-.45-.17,0,0,0,0Z" transform="translate(-401.73 -97)" style="fill:none"/><path d="M913,459l0,0-.06,0Z" transform="translate(-401.73 -97)" style="fill:none"/><path d="M954.25,410.19a1.23,1.23,0,0,1,1.9,1.32c.41-1.13.79-2.26,1.11-3.41q-2.29,1.61-4.64,3.19C953.16,410.92,953.72,410.56,954.25,410.19Z" transform="translate(-401.73 -97)" style="fill:none"/><path d="M666.54,482.38l3.29.14-3.32-.15Z" transform="translate(-401.73 -97)" style="fill:none"/><path d="M659,521v0l.32-.85-1.27.82Z" transform="translate(-401.73 -97)" style="fill:none"/><path d="M659,521h0l-.71-.05Z" transform="translate(-401.73 -97)" style="fill:none"/><path d="M417.28,402.19a1.23,1.23,0,0,1,2-1.06c.66.5,1.34,1,2,1.49-1.42-1.07-2.85-2.13-4.24-3.22C417.09,400.34,417.18,401.27,417.28,402.19Z" transform="translate(-401.73 -97)" style="fill:#999;stroke:#000;stroke-linecap:round;stroke-linejoin:round;stroke-width:3px"/><path d="M431,435l0,0L431,435Z" transform="translate(-401.73 -97)" style="fill:#999;stroke:#000;stroke-linecap:round;stroke-linejoin:round;stroke-width:3px"/><g style="opacity:0.36;mix-blend-mode:multiply"><path d="M493.5,491.5l30,6c-15-8-32-22-32-22l2.13.88-.75-.36.75.36L525.5,489.5c-39-17-43-50-43-50l3.49,1.19-.07,0,.07,0,49.38,16.77,0,0C482.87,420.6,455.86,328,442,239.49A285.69,285.69,0,0,0,403,384c0,1.25,0,2.49.05,3.73,0,.13,0,.26,0,.39L403,388s0,27,4,45l.33.73C430.89,568.53,548.46,671,690,671a286.94,286.94,0,0,0,83.06-12.22C567.68,655,493.5,491.5,493.5,491.5Zm-10.64-52.28c-1.49-.69-3-1.38-4.45-2.09C479.88,437.84,481.37,438.53,482.86,439.22Zm-15-7.41-4-2.09ZM453.64,424c-1.23-.72-2.47-1.43-3.69-2.16C451.17,422.57,452.41,423.28,453.64,424Zm-36.29-21.18c0,.26.06.53.1.79C417.41,403.35,417.38,403.08,417.35,402.82Zm.25,1.83.12.77Zm.31,1.81c0,.24.09.48.13.72C418,406.94,418,406.7,417.91,406.46Zm.36,1.79c.05.22.09.43.14.65C418.36,408.68,418.32,408.47,418.27,408.25Zm.43,1.83c0,.17.07.33.12.49C418.77,410.41,418.74,410.25,418.7,410.08Zm.56,2.13a2.76,2.76,0,0,1,.08.27A2.76,2.76,0,0,0,419.26,412.21Zm.48,1.58.18.56Zm.51,1.54.21.61Zm.53,1.5c.08.21.16.41.23.61C420.94,417.24,420.86,417,420.78,416.83Zm-1.52-15.7a1.23,1.23,0,0,0-2,1.06c-.1-.92-.19-1.85-.25-2.79,1.39,1.09,2.82,2.15,4.24,3.22C420.6,402.12,419.92,401.63,419.26,401.13Zm2.08,17.15.24.61Zm.57,1.39c.08.2.17.4.25.59C422.08,420.07,422,419.87,421.91,419.67Zm.59,1.35c.08.19.17.38.26.57C422.67,421.4,422.58,421.21,422.5,421Zm.6,1.29c.08.18.17.37.26.55C423.27,422.68,423.18,422.49,423.1,422.31Zm.61,1.25c.08.17.16.34.25.51C423.87,423.9,423.79,423.73,423.71,423.56Zm.61,1.21.24.45Zm.63,1.17.21.37Zm.7,1.25.09.16Zm.67,1.14.17.27Zm.57.92.21.33Zm-2.75-24.48c1.07.79,2.16,1.56,3.25,2.34C426.3,406.33,425.21,405.56,424.14,404.77Zm3.29,25.33c.08.11.15.22.22.33C427.58,430.32,427.51,430.21,427.43,430.1Zm.52.79.22.32Zm.49.72.21.3Zm.47.66a3.15,3.15,0,0,0,.19.27A3.15,3.15,0,0,1,428.91,432.27Zm.42.6.18.23Zm.39.52.16.2Zm.35.46.13.16Zm.3.38.1.13Zm.27.33.05.07Zm.36.44,0-.05.08.09Zm.93.87.94.88Zm-1.6-26.67c1.11.77,2.23,1.53,3.35,2.29C432.56,410.73,431.44,410,430.33,409.2Zm3.49,28.41.91.82Zm1.9,1.7.9.79Zm4.44-23.54c-1.16-.75-2.32-1.49-3.46-2.25C437.84,414.28,439,415,440.16,415.77Zm-2.58,25.16.95.81Zm1.92,1.62,1,.79Zm2,1.65.89.72Zm1.93,1.55.93.73Zm1.91,1.49,1,.76Zm-2.11-29.5c1.18.74,2.38,1.47,3.58,2.2C445.62,419.21,444.42,418.48,443.24,417.74Zm4.06,31c.35.26.69.53,1,.78C448,449.25,447.65,449,447.3,448.72Zm2.05,1.53,1,.72Zm2.1,1.52.9.64Zm1.95,1.38c.32.23.64.46,1,.68C454,453.61,453.72,453.38,453.4,453.15Zm2.1,1.46.88.61Zm2.06,1.4.85.57Zm2,1.32.88.58Zm-2.73-31.49c1.26.71,2.54,1.41,3.82,2.12C459.37,427.25,458.09,426.55,456.83,425.84Zm4.72,32.79.92.59Zm2,1.27.94.59Zm2.1,1.31.87.53Zm1.9,1.16,1,.6Zm1.93,1.15,1.08.64Zm2,1.2,1.06.61Zm2.09,1.2,1,.55Zm-2.55-32.44c1.38.7,2.78,1.39,4.17,2.08C473.84,434.87,472.44,434.18,471.06,433.48Zm4.57,33.59.93.52Zm1.84,1,1.06.58Zm2,1.07,1.05.57Zm2.33,1.25.65.35Zm1.83,1,.75.4Zm1.76.91.9.46Zm1.93,1,.85.42Zm1.93,1,.78.39Zm2.61,1.28-.81-.4Z" transform="translate(-401.73 -97)" style="fill:#333"/></g><path d="M535.5,457.5l-.11-.08,0,0Z" transform="translate(-401.73 -97)" style="fill:#999;stroke:#000;stroke-linecap:round;stroke-linejoin:round;stroke-width:3px"/><ellipse cx="806.5" cy="280.5" rx="61.35" ry="73.5" transform="translate(-444.71 270.12) rotate(-25)" style="fill:#fff"/></g></g></svg>